<svg width="146" height="30" viewBox="0 0 146 30" fill="none" xmlns="http://www.w3.org/2000/svg">
<path d="M21.606 9.695C21.138 9.695 20.839 9.461 20.709 8.993C20.631 8.655 20.514 7.615 20.358 5.873C18.304 5.275 16.51 4.976 14.976 4.976C13.598 4.976 12.376 5.197 11.31 5.639C10.192 6.107 9.243 6.77 8.463 7.628C7.657 8.512 7.033 9.552 6.591 10.748C6.123 11.996 5.889 13.387 5.889 14.921C5.889 16.481 6.123 17.885 6.591 19.133C7.085 20.433 7.683 21.473 8.385 22.253C9.139 23.085 10.049 23.735 11.115 24.203C12.103 24.645 13.221 24.866 14.469 24.866C15.197 24.866 15.847 24.827 16.419 24.749C17.017 24.671 17.55 24.554 18.018 24.398C18.46 24.242 18.915 24.021 19.383 23.735C19.773 23.501 20.202 23.163 20.67 22.721C20.748 22.643 20.891 22.552 21.099 22.448C21.203 22.396 21.359 22.37 21.567 22.37C21.879 22.37 22.126 22.474 22.308 22.682L24.375 24.944C23.231 26.374 21.827 27.453 20.163 28.181C18.447 28.935 16.432 29.312 14.118 29.312C12.116 29.312 10.244 28.948 8.502 28.22C6.786 27.492 5.356 26.504 4.212 25.256C2.99 23.93 2.08 22.409 1.482 20.693C0.858 18.925 0.546 17.001 0.546 14.921C0.546 12.763 0.897 10.813 1.599 9.071C2.301 7.329 3.289 5.821 4.563 4.547C5.889 3.221 7.41 2.22 9.126 1.544C10.894 0.841999 12.857 0.491 15.015 0.491C17.407 0.491 20.358 1.167 23.868 2.519V9.695H21.606ZM35.362 8.681C36.792 8.681 38.144 8.928 39.418 9.422C40.666 9.916 41.706 10.592 42.538 11.45C43.37 12.308 44.02 13.387 44.488 14.687C44.956 15.961 45.19 17.378 45.19 18.938C45.19 20.498 44.956 21.928 44.488 23.228C43.994 24.554 43.344 25.646 42.538 26.504C41.68 27.414 40.64 28.103 39.418 28.571C38.222 29.039 36.87 29.273 35.362 29.273C33.854 29.273 32.489 29.039 31.267 28.571C30.045 28.103 29.005 27.414 28.147 26.504C27.237 25.568 26.561 24.476 26.119 23.228C25.651 21.928 25.417 20.498 25.417 18.938C25.417 17.378 25.651 15.961 26.119 14.687C26.561 13.491 27.237 12.412 28.147 11.45C28.979 10.592 30.019 9.916 31.267 9.422C32.541 8.928 33.906 8.681 35.362 8.681ZM35.362 25.568C37.026 25.568 38.248 25.009 39.028 23.891C39.834 22.721 40.237 21.083 40.237 18.977C40.237 16.871 39.834 15.233 39.028 14.063C38.248 12.919 37.026 12.347 35.362 12.347C33.698 12.347 32.45 12.919 31.618 14.063C30.786 15.207 30.37 16.858 30.37 19.016C30.37 21.122 30.786 22.747 31.618 23.891C32.424 25.009 33.672 25.568 35.362 25.568ZM68.6714 25.49C69.3214 25.646 69.6464 26.049 69.6464 26.699V29H63.7574C63.1594 29 62.7564 28.701 62.5484 28.103L62.1974 26.504C61.7554 26.946 61.3264 27.336 60.9104 27.674C60.5204 27.986 60.0524 28.272 59.5064 28.532C58.9864 28.766 58.4404 28.961 57.8684 29.117C57.2184 29.247 56.6074 29.312 56.0354 29.312C54.9694 29.312 53.9944 29.13 53.1104 28.766C52.3564 28.454 51.6544 27.921 51.0044 27.167C50.4844 26.569 50.0554 25.776 49.7174 24.788C49.4314 23.8 49.2884 22.773 49.2884 21.707V12.854L47.2994 12.503C46.6494 12.347 46.3244 11.944 46.3244 11.294V8.993H54.0854V21.707C54.0854 22.903 54.3714 23.852 54.9434 24.554C55.4894 25.204 56.3344 25.529 57.4784 25.529C58.2584 25.529 59.0384 25.347 59.8184 24.983C60.5204 24.645 61.2094 24.138 61.8854 23.462V12.854C61.1574 12.724 60.6764 12.646 60.4424 12.62C60.2084 12.568 60.0394 12.529 59.9354 12.503C59.2854 12.347 58.9604 11.944 58.9604 11.294V8.993H66.7214V25.139L68.6714 25.49ZM93.5098 25.49C94.1598 25.646 94.4848 26.049 94.4848 26.699V29H86.7238V16.286C86.7238 15.09 86.4378 14.141 85.8658 13.439C85.3198 12.763 84.4748 12.425 83.3308 12.425C82.4988 12.425 81.7188 12.62 80.9908 13.01C80.2108 13.426 79.5218 13.933 78.9238 14.531V25.139L80.0548 25.334L80.6398 25.451L80.8738 25.49C81.5238 25.646 81.8488 26.049 81.8488 26.699V29H71.1628V26.699C71.1628 26.049 71.4878 25.646 72.1378 25.49L72.3718 25.451L72.9568 25.334L74.0878 25.139V12.854L72.9568 12.659C72.8268 12.633 72.7098 12.607 72.6058 12.581C72.5278 12.555 72.4498 12.542 72.3718 12.542L72.1378 12.503C71.4878 12.347 71.1628 11.944 71.1628 11.294V8.993H77.0518C77.6498 8.993 78.0528 9.292 78.2608 9.89L78.6118 11.45C78.9758 11.034 79.3918 10.657 79.8598 10.319C80.2238 10.033 80.7048 9.747 81.3028 9.461C81.9788 9.149 82.5118 8.954 82.9018 8.876C83.5518 8.746 84.1758 8.681 84.7738 8.681C85.9178 8.681 86.8928 8.863 87.6988 9.227C88.4528 9.539 89.1548 10.059 89.8048 10.787C90.3508 11.437 90.7798 12.243 91.0918 13.205C91.3778 14.063 91.5208 15.09 91.5208 16.286V25.139L92.6908 25.334C92.8208 25.36 92.9248 25.386 93.0028 25.412C93.1068 25.438 93.1978 25.451 93.2758 25.451L93.5098 25.49ZM104.069 29.312C102.327 29.312 100.988 28.818 100.052 27.83C99.1158 26.842 98.6478 25.49 98.6478 23.774V12.62H96.6198C96.4118 12.62 96.1908 12.529 95.9568 12.347C95.7488 12.191 95.6448 11.944 95.6448 11.606V9.656L98.8818 9.149L99.8958 3.689C99.9218 3.455 100.039 3.26 100.247 3.104C100.455 2.948 100.702 2.87 100.988 2.87H103.484V9.188H108.749V12.62H103.484V23.462C103.484 24.06 103.64 24.541 103.952 24.905C104.264 25.243 104.68 25.412 105.2 25.412C105.564 25.412 105.811 25.386 105.941 25.334L106.448 25.1L106.877 24.866C106.955 24.814 107.059 24.788 107.189 24.788C107.397 24.788 107.527 24.814 107.579 24.866L107.852 25.178L109.295 27.518C108.619 28.064 107.813 28.506 106.877 28.844C105.993 29.156 105.057 29.312 104.069 29.312ZM119.982 8.681C121.256 8.681 122.413 8.876 123.453 9.266C124.441 9.63 125.351 10.228 126.183 11.06C126.937 11.814 127.535 12.763 127.977 13.907C128.419 15.077 128.64 16.351 128.64 17.729C128.64 18.041 128.614 18.353 128.562 18.665C128.51 18.951 128.458 19.133 128.406 19.211C128.354 19.341 128.237 19.445 128.055 19.523C127.951 19.575 127.769 19.601 127.509 19.601H115.146C115.302 21.655 115.861 23.163 116.823 24.125C117.785 25.087 119.059 25.568 120.645 25.568C121.451 25.568 122.114 25.477 122.634 25.295C123.206 25.113 123.7 24.905 124.116 24.671C124.298 24.567 124.48 24.476 124.662 24.398C124.87 24.294 125.065 24.19 125.247 24.086C125.533 23.904 125.832 23.813 126.144 23.813C126.352 23.813 126.534 23.852 126.69 23.93C126.82 23.982 126.937 24.086 127.041 24.242L128.445 25.997C127.847 26.673 127.249 27.206 126.651 27.596C125.949 28.038 125.26 28.376 124.584 28.61C123.934 28.818 123.193 28.987 122.361 29.117C121.711 29.221 120.983 29.273 120.177 29.273C118.747 29.273 117.46 29.052 116.316 28.61C115.172 28.168 114.132 27.479 113.196 26.543C112.312 25.659 111.61 24.541 111.09 23.189C110.596 21.889 110.349 20.342 110.349 18.548C110.349 17.248 110.57 15.974 111.012 14.726C111.428 13.556 112.065 12.503 112.923 11.567C113.729 10.683 114.73 9.981 115.926 9.461C117.122 8.941 118.474 8.681 119.982 8.681ZM120.06 12.113C118.682 12.113 117.59 12.516 116.784 13.322C116.004 14.102 115.497 15.22 115.263 16.676H124.311C124.311 16.13 124.22 15.545 124.038 14.921C123.882 14.427 123.622 13.946 123.258 13.478C122.92 13.062 122.478 12.737 121.932 12.503C121.334 12.243 120.71 12.113 120.06 12.113ZM143.227 8.642C144.241 8.642 145.06 8.863 145.684 9.305L145.06 12.932C145.034 13.166 144.956 13.322 144.826 13.4C144.67 13.504 144.488 13.556 144.28 13.556C144.098 13.556 143.838 13.517 143.5 13.439C143.032 13.335 142.577 13.283 142.135 13.283C141.121 13.283 140.263 13.556 139.561 14.102C138.911 14.596 138.313 15.415 137.767 16.559V25.139L139.717 25.49C140.367 25.646 140.692 26.049 140.692 26.699V29H130.006V26.699C130.006 26.049 130.331 25.646 130.981 25.49L132.931 25.139V12.854L130.981 12.503C130.331 12.347 130.006 11.944 130.006 11.294V8.993H135.778C136.272 8.993 136.61 9.084 136.792 9.266C136.974 9.448 137.104 9.76 137.182 10.202L137.494 12.62C138.196 11.346 139.028 10.371 139.99 9.695C140.978 8.993 142.057 8.642 143.227 8.642Z" fill="#003399"/>
</svg>
